<svg id="Semi_Solid" viewBox="0 0 64 64" xmlns="http://www.w3.org/2000/svg"><g fill="rgb(0,0,0)"><path d="m32 60.5c-6.50195 0-17.86426-13.03711-19.13867-14.52344-.25293-.29492-.38184-.67676-.3584-1.06445l1-17c.0459-.79297.70312-1.41211 1.49707-1.41211h9.44043c.82812 0 1.5.67188 1.5 1.5s-.67188 1.5-1.5 1.5h-8.02637l-.88086 14.97949c4.55859 5.22168 12.71289 13.02051 16.4668 13.02051 4.65625 0 14.2793-3.06445 15.54883-6.08008.11816-.28027.36328-.86328-.62207-1.87207-.5791-.5918-.56738-1.54199.02539-2.12109.59082-.5791 1.54199-.56738 2.12109.02539 2.06836 2.11719 1.66504 4.12402 1.24023 5.13184-2.16504 5.1416-13.96582 7.91602-18.31348 7.91602z"/><path d="m46.66992 55.99023c-.40234 0-.80371-.16113-1.09961-.47949l-10.66992-11.49023c-.56348-.60645-.52832-1.55566.0791-2.12012.60742-.5625 1.55566-.52832 2.12012.0791l10.66992 11.49023c.56348.60645.52832 1.55566-.0791 2.12012-.28906.26758-.65527.40039-1.02051.40039z"/><path d="m41.88965 58.38965c-.38379 0-.76758-.14648-1.06055-.43945l-9.88965-9.88965c-.58594-.58594-.58594-1.53516 0-2.12109s1.53516-.58594 2.12109 0l9.88965 9.88965c.58594.58594.58594 1.53516 0 2.12109-.29297.29297-.67676.43945-1.06055.43945z"/><path d="m36.64941 59.91016c-.34473 0-.69238-.11816-.97461-.36035l-8.65039-7.41016c-.62988-.53906-.70215-1.48633-.16406-2.11523.53906-.62891 1.4873-.70215 2.11523-.16406l8.65039 7.41016c.62988.53906.70215 1.48633.16406 2.11523-.29688.34668-.71777.52441-1.14062.52441z"/><path d="m59 47c-.02734 0-.05566-.00098-.08301-.00195l-9-.5c-.82715-.0459-1.46094-.75391-1.41504-1.58105.04688-.82617.72852-1.44531 1.58105-1.41504l7.41699.41211v-17.26074l-6.5752.64258c-.2334.02539-.4248.23926-.4248.49414v.20996c0 .82812-.67188 1.5-1.5 1.5s-1.5-.67188-1.5-1.5v-.20996c0-1.78613 1.33887-3.28125 3.11426-3.47852l8.24023-.80469c.41797-.04004.83984.09766 1.15332.38184s.49219.68848.49219 1.11133v20.5c0 .41211-.16992.80664-.46875 1.08984-.2793.26367-.64844.41016-1.03125.41016z"/><path d="m5 47c-.38281 0-.75195-.14648-1.03125-.41016-.29883-.2832-.46875-.67773-.46875-1.08984v-20.5c0-.42285.17871-.82715.49219-1.11133.31445-.28418.7334-.42188 1.15332-.38184l8.2207.80273c1.79492.19922 3.13379 1.69434 3.13379 3.48047v.20996c0 .82812-.67188 1.5-1.5 1.5s-1.5-.67188-1.5-1.5v-.20996c0-.25488-.19141-.46875-.44434-.49609l-6.55566-.64062v17.26074l7.41699-.41211c.83887-.03125 1.53418.58887 1.58105 1.41504.0459.82715-.58789 1.53516-1.41504 1.58105l-9 .5c-.02734.00098-.05566.00195-.08301.00195z"/><path d="m48 50c-.44043 0-.86133-.19336-1.14746-.53418l-9.9873-11.8584-3.89062 2.84375c-2.3584 1.72754-5.60645 1.65625-7.89941-.16699l-.32324-.26074c-.75781-.60645-1.2334-1.5127-1.30176-2.48438-.06738-.97266.27637-1.93652.94434-2.64551l5.18359-5.50195c.56738-.60352 1.51758-.63184 2.12012-.06348.60352.56836.63184 1.51758.06348 2.12012l-5.18359 5.50293c-.13086.13867-.14062.2959-.13477.37793.00586.08105.03711.23535.18555.35449l.32031.25781c1.2334.97949 2.98438 1.01758 4.25488.08887l5.02148-3.6709c.63574-.46582 1.52344-.35742 2.03223.24414l9.50586 11.28711.71289-1.24805-.89062-15.14258h-1.58594c-.82812 0-1.5-.67188-1.5-1.5s.67188-1.5 1.5-1.5h3c.79395 0 1.45117.61914 1.49707 1.41211l1 17c.01758.29004-.05078.5791-.19434.83203l-2 3.5c-.24316.42578-.67969.70508-1.16699.75-.0459.00391-.09082.00586-.13574.00586z"/><path d="m44.74512 41.07715c-3.15039 0-6.12109-1.38184-8.15137-3.79102-.5332-.63379-.45215-1.58008.18066-2.11426.63379-.5332 1.58008-.45117 2.11426.18066 1.45801 1.73145 3.59277 2.72461 5.85645 2.72461.82812 0 1.5.67188 1.5 1.5s-.67188 1.5-1.5 1.5z"/><circle cx="9.5" cy="40.5" r="1.5"/><circle cx="54.5" cy="40.5" r="1.5"/><path d="m32 3.5c-7.85449 0-14.24512 6.39062-14.24512 14.24512s6.39062 14.24414 14.24512 14.24414 14.24512-6.38965 14.24512-14.24414-6.39062-14.24512-14.24512-14.24512zm6.79297 11.37891-7.72754 7.83789c-.2832.28711-.66797.44727-1.06836.44727-.03027 0-.06152-.00098-.0918-.00293-.43262-.02637-.83301-.23926-1.09668-.58203l-3.72168-4.83789c-.50586-.65723-.38281-1.59863.27344-2.10352.6582-.50488 1.59863-.38281 2.10352.27344l2.67285 3.47461 6.51953-6.6123c.58203-.59082 1.53125-.59668 2.12109-.01562.58984.58203.59668 1.53125.01562 2.12109z"/></g></svg>