<svg height="426.66667pt" viewBox="0 0 426.66667 426.66667" width="426.66667pt" xmlns="http://www.w3.org/2000/svg"><path d="m309.332031 170.667969h-298.664062c-5.890625 0-10.667969 4.773437-10.667969 10.664062v234.667969c0 5.890625 4.777344 10.667969 10.667969 10.667969h74.664062v-138.667969c0-5.890625 4.777344-10.667969 10.667969-10.667969h128c5.890625 0 10.667969 4.777344 10.667969 10.667969v138.667969h85.332031v-245.335938c0-5.890625-4.777344-10.664062-10.667969-10.664062zm0 0"/><path d="m106.667969 298.667969h106.664062v128h-106.664062zm0 0"/><path d="m416 234.667969h-74.667969v192h74.667969c2.828125 0 5.542969-1.121094 7.542969-3.125 2.003906-2 3.125-4.714844 3.125-7.542969v-170.667969c0-2.828125-1.121094-5.542969-3.125-7.542969-2-2-4.714844-3.125-7.542969-3.121093zm-21.332031 106.664062h-21.335938c-5.890625 0-10.664062-4.773437-10.664062-10.664062s4.773437-10.667969 10.664062-10.667969h21.335938c5.890625 0 10.664062 4.777344 10.664062 10.667969s-4.773437 10.664062-10.664062 10.664062zm0-42.664062h-21.335938c-5.890625 0-10.664062-4.777344-10.664062-10.667969s4.773437-10.667969 10.664062-10.667969h21.335938c5.890625 0 10.664062 4.777344 10.664062 10.667969s-4.773437 10.667969-10.664062 10.667969zm0 0"/><path d="m234.667969 53.332031c2.828125.003907 5.542969-1.121093 7.542969-3.121093s3.125-4.714844 3.121093-7.542969c0-2.347657 0-2.980469 8.710938-5.886719 8.144531-2.707031 23.289062-7.761719 23.289062-26.113281 0-5.890625-4.773437-10.667969-10.664062-10.667969s-10.667969 4.777344-10.667969 10.667969c0 2.34375 0 2.976562-8.707031 5.882812-8.144531 2.710938-23.292969 7.761719-23.292969 26.117188 0 2.828125 1.121094 5.542969 3.121094 7.542969 2.003906 2 4.714844 3.125 7.546875 3.121093zm0 0"/><path d="m277.332031 74.667969c.003907-3.9375-2.160156-7.554688-5.628906-9.410157-3.46875-1.855468-7.679687-1.652343-10.953125.535157l-32 21.332031c-2.964844 1.980469-4.746094 5.308594-4.75 8.875v53.332031h53.332031zm0 0"/><path d="m144 53.332031c2.828125.003907 5.542969-1.121093 7.542969-3.121093 2.003906-2 3.125-4.714844 3.125-7.542969 0-2.347657 0-2.980469 8.707031-5.886719 8.144531-2.707031 23.292969-7.761719 23.292969-26.113281 0-5.890625-4.777344-10.667969-10.667969-10.667969s-10.667969 4.777344-10.667969 10.667969c0 2.34375 0 2.976562-8.707031 5.882812-8.144531 2.710938-23.292969 7.761719-23.292969 26.117188 0 2.828125 1.121094 5.542969 3.125 7.542969 2 2 4.714844 3.125 7.542969 3.121093zm0 0"/><path d="m186.667969 74.667969c.003906-3.9375-2.164063-7.554688-5.632813-9.410157-3.46875-1.855468-7.679687-1.652343-10.953125.535157l-32 21.332031c-2.960937 1.980469-4.742187 5.308594-4.75 8.875v53.332031h53.335938zm0 0"/><path d="m53.332031 53.332031c2.832031.003907 5.542969-1.121093 7.546875-3.121093 2-2 3.121094-4.714844 3.121094-7.542969 0-2.347657 0-2.980469 8.707031-5.886719 8.144531-2.707031 23.292969-7.761719 23.292969-26.113281 0-5.890625-4.777344-10.667969-10.667969-10.667969s-10.664062 4.777344-10.664062 10.667969c0 2.34375 0 2.976562-8.710938 5.882812-8.144531 2.710938-23.289062 7.761719-23.289062 26.117188-.003907 2.828125 1.121093 5.542969 3.121093 7.542969s4.714844 3.125 7.542969 3.121093zm0 0"/><path d="m96 74.667969c.003906-3.9375-2.160156-7.554688-5.632812-9.410157-3.46875-1.855468-7.679688-1.652343-10.949219.535157l-32 21.332031c-2.964844 1.980469-4.746094 5.308594-4.75 8.875v53.332031h53.332031zm0 0"/></svg>