<svg height="512pt" viewBox="0 -58 512 512" width="512pt" xmlns="http://www.w3.org/2000/svg"><g fill-rule="evenodd"><path d="m267 235.394531-43.417969-10.871093c-5.621093-1.402344-11.792969.554687-15.515625 5.464843l-32.890625 43.34375-32.953125-43.421875c-3.46875-4.910156-9.722656-7.433594-15.898437-5.859375l-51.867188 13.292969c-44.300781 11.355469-74.457031 50.179688-74.457031 95.84375v46.734375c0 8.285156 6.714844 15 15 15h254.535156c-1.640625-4.667969-2.535156-9.691406-2.535156-14.921875zm0 0"/><path d="m411.273438 210.625 9.125 4.585938v-35.210938h-31.605469v35.210938l9.035156-4.539063c4.074219-2.070313 9.042969-2.246094 13.445313-.046875zm0 0"/><path d="m497 180h-46.605469v59.464844c0 8.285156-6.714843 15-15 15-2.917969 0-5.644531-.835938-7.949219-2.28125l-22.851562-11.480469-24.121094 12.121094c-10.042968 5.035156-21.628906-2.492188-21.621094-13.359375l-.0625-59.464844h-46.789062c-8.285156 0-15 6.71875-15 15v185c0 8.285156 6.714844 15 15 15h185c8.285156 0 15-6.714844 15-15v-185c0-8.285156-6.714844-15-15-15zm0 0"/><path d="m276.171875 101c0 55.78125-45.21875 101-101 101s-101-45.21875-101-101 45.21875-101 101-101 101 45.21875 101 101zm0 0"/></g></svg>