<svg height="512" viewBox="0 0 32 32" width="512" xmlns="http://www.w3.org/2000/svg"><g id="_29-Tax" data-name="29-Tax"><path d="m25 8h4.41l-5.41-5.41v4.41a1 1 0 0 0 1 1z"/><path d="m25 10a3 3 0 0 1 -3-3v-5h-11a3 3 0 0 0 -3 3v7.2a10 10 0 0 1 8 17.8h11a3 3 0 0 0 3-3v-17zm-6 0h-6a1 1 0 0 1 0-2h6a1 1 0 0 1 0 2zm6 15h-2a1 1 0 0 1 0-2h2a1 1 0 0 1 0 2zm0-5h-2a1 1 0 0 1 0-2h2a1 1 0 0 1 0 2zm0-5h-4a1 1 0 0 1 0-2h4a1 1 0 0 1 0 2z"/><path d="m10 14a8 8 0 1 0 8 8 8 8 0 0 0 -8-8zm-2 5a1 1 0 1 1 -1 1 1 1 0 0 1 1-1zm4 6a1 1 0 1 1 1-1 1 1 0 0 1 -1 1zm.71-4.29-4 4a1 1 0 0 1 -1.42 0 1 1 0 0 1 0-1.42l4-4a1 1 0 0 1 1.42 1.42z"/></g></svg>