<?xml version="1.0" encoding="UTF-8"?>
<svg xmlns="http://www.w3.org/2000/svg" xmlns:xlink="http://www.w3.org/1999/xlink" version="1.1" id="Capa_1" x="0px" y="0px" viewBox="0 0 512 512" style="enable-background:new 0 0 512 512;" xml:space="preserve" width="512" height="512">
<g>
	<path style="fill:none;stroke:#000000;stroke-width:15;stroke-linecap:round;stroke-linejoin:round;stroke-miterlimit:10;" d="&#10;&#9;&#9;M39.094,318.125H22.5c-8.284,0-15,6.716-15,15v63.188c0,8.284,6.716,15,15,15h16.594c8.284,0,15-6.716,15-15v-63.188&#10;&#9;&#9;C54.094,324.841,47.378,318.125,39.094,318.125z"/>
	<path style="fill:none;stroke:#000000;stroke-width:15;stroke-linecap:round;stroke-linejoin:round;stroke-miterlimit:10;" d="&#10;&#9;&#9;M162.812,388.133v8.18c0,8.284,6.716,15,15,15h16.594c8.284,0,15-6.716,15-15v-63.188c0-8.284-6.716-15-15-15h-16.594&#10;&#9;&#9;c-8.284,0-15,6.716-15,15v20.008"/>
	<path style="fill:none;stroke:#000000;stroke-width:15;stroke-linecap:round;stroke-linejoin:round;stroke-miterlimit:10;" d="&#10;&#9;&#9;M411.844,318.125H395.25c-8.284,0-15,6.716-15,15v63.188c0,8.284,6.716,15,15,15h16.594c8.284,0,15-6.716,15-15v-63.188&#10;&#9;&#9;C426.844,324.841,420.128,318.125,411.844,318.125z"/>
	<path style="fill:none;stroke:#000000;stroke-width:15;stroke-linecap:round;stroke-linejoin:round;stroke-miterlimit:10;" d="&#10;&#9;&#9;M287.062,411.312h-46.594v-5.836c0-15.065,9.64-28.44,23.932-33.204l8.986-2.995c8.167-2.722,13.675-10.365,13.675-18.974v-12.179&#10;&#9;&#9;c0-11.046-8.954-20-20-20h-6.594c-11.046,0-20,8.954-20,20v11.062"/>
	<path style="fill:none;stroke:#000000;stroke-width:15;stroke-linecap:round;stroke-linejoin:round;stroke-miterlimit:10;" d="&#10;&#9;&#9;M457.906,333.125c0-8.284,6.716-15,15-15H489.5c8.284,0,15,6.716,15,15v16.594c0,8.284-6.716,15-15,15h-16.062"/>
	<path style="fill:none;stroke:#000000;stroke-width:15;stroke-linecap:round;stroke-linejoin:round;stroke-miterlimit:10;" d="&#10;&#9;&#9;M473.438,364.719H504.5v31.594c0,8.284-6.716,15-15,15h-16.594c-8.284,0-15-6.716-15-15"/>
	<path style="fill:none;stroke:#000000;stroke-width:15;stroke-linecap:round;stroke-linejoin:round;stroke-miterlimit:10;" d="&#10;&#9;&#9;M489.5,364.719c8.284,0,15,6.716,15,15v16.594c0,8.284-6.716,15-15,15h-16.594c-8.284,0-15-6.716-15-15"/>
	
		<circle style="fill:none;stroke:#000000;stroke-width:15;stroke-linecap:round;stroke-linejoin:round;stroke-miterlimit:10;" cx="333.656" cy="395.781" r="15.531"/>
	<path style="fill:none;stroke:#000000;stroke-width:15;stroke-linecap:round;stroke-linejoin:round;stroke-miterlimit:10;" d="&#10;&#9;&#9;M108.453,411.312v-93.188v0.531c0,8.284-6.716,15-15,15h-8.297"/>
	
		<line style="fill:none;stroke:#000000;stroke-width:15;stroke-linecap:round;stroke-linejoin:round;stroke-miterlimit:10;" x1="131.75" y1="411.312" x2="85.156" y2="411.312"/>
	
		<line style="fill:none;stroke:#000000;stroke-width:15;stroke-linecap:round;stroke-linejoin:round;stroke-miterlimit:10;" x1="131.75" y1="411.312" x2="85.156" y2="411.312"/>
	<path style="fill:none;stroke:#000000;stroke-width:15;stroke-linecap:round;stroke-linejoin:round;stroke-miterlimit:10;" d="&#10;&#9;&#9;M7.846,245.771c-0.227,1.355-0.346,2.747-0.346,4.167v37.125h31.062V256h62.125v31.062h31.062v-37.125c0-13.807-11.193-25-25-25&#10;&#9;&#9;H85.156v-31.062H54.094v31.062H32.5"/>
	<path style="fill:none;stroke:#000000;stroke-width:15;stroke-linecap:round;stroke-linejoin:round;stroke-miterlimit:10;" d="&#10;&#9;&#9;M262.062,224.938h-21.594v-31.062h-31.062v31.062h-21.594c-13.807,0-25,11.193-25,25v37.125h31.062V256H256v31.062h31.062v-37.125&#10;&#9;&#9;C287.062,236.13,275.87,224.938,262.062,224.938z"/>
	<path style="fill:none;stroke:#000000;stroke-width:15;stroke-linecap:round;stroke-linejoin:round;stroke-miterlimit:10;" d="&#10;&#9;&#9;M465.71,256h7.728v31.062H504.5v-37.125c0-13.807-11.193-25-25-25h-21.594v-31.062h-31.062v31.062H405.25&#10;&#9;&#9;c-13.807,0-25,11.193-25,25v37.125h31.062V256h19.397"/>
	<path style="fill:none;stroke:#000000;stroke-width:15;stroke-linecap:round;stroke-linejoin:round;stroke-miterlimit:10;" d="&#10;&#9;&#9;M233.234,162.812h-31.594V131.75h31.594c8.284,0,15,6.716,15,15v1.062C248.234,156.097,241.519,162.812,233.234,162.812z"/>
	<path style="fill:none;stroke:#000000;stroke-width:15;stroke-linecap:round;stroke-linejoin:round;stroke-miterlimit:10;" d="&#10;&#9;&#9;M201.641,131.75v-31.062h31.594c8.284,0,15,6.716,15,15v1.062c0,8.284-6.716,15-15,15"/>
	<path style="fill:none;stroke:#000000;stroke-width:15;stroke-linecap:round;stroke-linejoin:round;stroke-miterlimit:10;" d="&#10;&#9;&#9;M465.672,115.688c0-8.284-6.716-15-15-15h-16.594c-8.284,0-15,6.716-15,15v32.125c0,8.284,6.716,15,15,15h16.594&#10;&#9;&#9;c8.284,0,15-6.716,15-15"/>
	
		<polyline style="fill:none;stroke:#000000;stroke-width:15;stroke-linecap:round;stroke-linejoin:round;stroke-miterlimit:10;" points="&#10;&#9;&#9;46.328,162.812 46.328,131.75 92.922,131.75 92.922,162.812 &#9;"/>
	<path style="fill:none;stroke:#000000;stroke-width:15;stroke-linecap:round;stroke-linejoin:round;stroke-miterlimit:10;" d="&#10;&#9;&#9;M46.328,131.75v-16.062c0-8.284,6.716-15,15-15h16.594c8.284,0,15,6.716,15,15v16.062"/>
</g>















</svg>
