<svg fill="none" height="512" viewBox="0 0 24 24" width="512" xmlns="http://www.w3.org/2000/svg"><path clip-rule="evenodd" d="m12 23c6.0751 0 11-4.9249 11-11 0-6.07513-4.9249-11-11-11-6.07513 0-11 4.92487-11 11 0 6.0751 4.92487 11 11 11zm1-17c0-.55228-.4477-1-1-1s-1 .44772-1 1v.58552c-1.41124.32645-2.5 1.5527-2.5 3.07527 0 1.51541 1.0949 2.78091 2.5643 3.08951l1.3923.2924c.6369.1338 1.0434.6589 1.0434 1.2134 0 .6489-.5599 1.2439-1.3374 1.2439h-.1626c-.7261 0-1.2985-.4741-1.4554-1.059-.143-.5334-.69136-.8499-1.2248-.7069s-.84995.6914-.70693 1.2249c.3123 1.1648 1.23154 2.0654 2.38713 2.3998v.6412c0 .5523.4477 1 1 1s1-.4477 1-1v-.6038c1.4169-.3578 2.5-1.6022 2.5-3.1401 0-1.5545-1.1232-2.8538-2.6324-3.1707l-1.3923-.2924c-.5972-.1254-.9753-.6168-.9753-1.13221 0-.603.5211-1.16079 1.2508-1.16079h.2492c.7261 0 1.2985.47408 1.4554 1.05896.143.53344.6914.84994 1.2248.70694s.8499-.69142.7069-1.22486c-.3123-1.16484-1.2315-2.0654-2.3871-2.39984z" fill="rgb(0,0,0)" fill-rule="evenodd"/></svg>