<svg id="Layer" height="512" viewBox="0 0 24 24" width="512" xmlns="http://www.w3.org/2000/svg"><path id="box" d="m10.48 11.15a4.285 4.285 0 0 0 .77.24v9.52a2.64 2.64 0 0 1 -.47-.17l-6-2.67a3 3 0 0 1 -1.78-2.74v-6.66a2.955 2.955 0 0 1 .11-.79zm4.34-2.23-8.15-3.83-1.89.84a2.909 2.909 0 0 0 -.91.63l7.21 3.21a2.268 2.268 0 0 0 1.84 0zm5.31-2.36a2.909 2.909 0 0 0 -.91-.63l-6-2.67a2.966 2.966 0 0 0 -2.44 0l-2.29 1.02 8.15 3.83zm.76 1.32-3.51 1.56v2.45a.75.75 0 1 1 -1.5 0v-1.79l-2.36 1.05a5.275 5.275 0 0 1 -.77.24v9.52a2.64 2.64 0 0 0 .47-.17l6-2.67a3 3 0 0 0 1.78-2.74v-6.66a2.955 2.955 0 0 0 -.11-.79z" fill="rgb(0,0,0)"/></svg>