<svg id="Icons" height="512" viewBox="0 0 60 60" width="512" xmlns="http://www.w3.org/2000/svg"><path d="m13 9.184a2.982 2.982 0 0 0 0 5.632z"/><path d="m17 20a3 3 0 0 0 -2-2.816v5.632a3 3 0 0 0 2-2.816z"/><path d="m50.146 10.988h2.708v7.412h-2.708z" transform="matrix(.496 -.868 .868 .496 13.187 52.115)"/><path d="m36.026 41.776 5.75-3.834-5.362-3.064z"/><path d="m39.061 34.087 9.669-17.113-2.111-1.206-9.749 17.067z"/><path d="m53.054 19.446-2.587-1.479-9.668 17.113 2.507 1.433z"/><path d="m57.754 11.218v-.006a1.811 1.811 0 0 0 -.675-2.48l-3.272-1.864a1.814 1.814 0 0 0 -2.488.671l-1.373 2.4 6.435 3.678z"/><path d="m3 58h34a1 1 0 0 0 1-1v-1h-25.17a3 3 0 0 1 -2.124-.88l-5.826-5.826a3 3 0 0 1 -.88-2.124v-41.17h-1a1 1 0 0 0 -1 1v50a1 1 0 0 0 1 1z"/><path d="m13 49v5h28a1 1 0 0 0 1-1v-12.8l-5.258 3.5a1.746 1.746 0 0 1 -.967.3h-24.775a1 1 0 0 1 0-2h23.01l.473-8.4a2.975 2.975 0 0 1 .367-1.256l7.15-12.523v-16.821a1 1 0 0 0 -1-1h-34a1 1 0 0 0 -1 1v44h5a2 2 0 0 1 2 2zm18-10h-20a1 1 0 0 1 0-2h20a1 1 0 0 1 0 2zm0-5h-20a1 1 0 0 1 0-2h20a1 1 0 0 1 0 2zm-8-27h14a1 1 0 0 1 0 2h-14a1 1 0 0 1 0-2zm0 5h14a1 1 0 0 1 0 2h-14a1 1 0 0 1 0-2zm0 5h14a1 1 0 0 1 0 2h-14a1 1 0 0 1 0-2zm0 5h14a1 1 0 0 1 0 2h-14a1 1 0 0 1 0-2zm0 5h10a1 1 0 0 1 0 2h-10a1 1 0 0 1 0-2zm-14-15a5.009 5.009 0 0 1 4-4.9v-1.1a1 1 0 0 1 2 0v1.1a5.009 5.009 0 0 1 4 4.9 1 1 0 0 1 -2 0 3 3 0 0 0 -2-2.816v5.916a5 5 0 0 1 0 9.8v1.1a1 1 0 0 1 -2 0v-1.1a5.009 5.009 0 0 1 -4-4.9 1 1 0 0 1 2 0 3 3 0 0 0 2 2.816v-5.916a5.009 5.009 0 0 1 -4-4.9z"/><path d="m11 49h-3.586l3.586 3.586z"/></svg>